<?xml version="1.0" encoding="UTF-8" standalone="no"?>
<svg width="379px" height="335px" viewBox="0 0 379 335" version="1.1" xmlns="http://www.w3.org/2000/svg" xmlns:xlink="http://www.w3.org/1999/xlink">
    <!-- Generator: Sketch 3.6.1 (26313) - http://www.bohemiancoding.com/sketch -->
    <title>Logo</title>
    <desc>Created with Sketch.</desc>
    <defs></defs>
    <g id="Page-1" stroke="none" stroke-width="1" fill="none" fill-rule="evenodd">
        <g id="Logo" transform="translate(3.000000, 3.000000)" stroke-width="5" stroke="#000000">
            <g id="heart95">
                <path d="M318.577394,13.4439349 C303.472916,4.94188225 286.148312,0.052336196 267.664921,0.052336196 C235.053652,0.052336196 205.848835,15.2361191 186.564674,39.0453296 C167.18942,15.2361191 138.012143,0.052336196 105.356387,0.052336196 C86.9174835,0.052336196 69.624656,4.94188225 54.4862823,13.4439349 C22.0063569,31.8224809 0,67.1575138 0,107.765205 C0,119.390593 1.85151675,130.539797 5.2050076,140.970395 C23.2901317,224.029909 186.564674,328.783941 186.564674,328.783941 C186.564674,328.783941 349.731176,224.032073 367.841722,140.970395 C371.195212,130.539797 373.065795,119.375441 373.065795,107.765205 C373.065795,67.1726651 351.059438,31.8484546 318.577394,13.4439349 L318.577394,13.4439349 Z" id="Shape"></path>
            </g>
            <g id="malin" transform="translate(202.000000, 21.000000)">
                <g id="Group">
                    <path d="M0.798,118.199 C0.798,118.199 13.848,82.45 67.96,83.708 C122.072,84.965 135.215,118.199 135.215,118.199 C135.215,118.199 137.724,61.445 70.621,57.055 C1.954,60.191 0.798,118.199 0.798,118.199 L0.798,118.199 Z" id="Shape" fill="#000000"></path>
                    <path d="M42.229,162.083 C42.229,162.083 51.811,174.679 68.198,174.125 C84.585,173.571 92.475,163.052 92.475,163.052" id="Shape"></path>
                    <circle id="Oval" fill="#000000" cx="43.569" cy="131.411" r="4.776"></circle>
                    <circle id="Oval" fill="#000000" cx="93.96" cy="131.411" r="4.776"></circle>
                    <path d="M67.013,53.236 C67.013,53.236 68.524,30.469 83.094,18.335 C97.664,6.2 159.359,0.943 159.359,0.943 C159.359,0.943 131.15,41.528 114.684,50.498 C98.217,59.466 67.013,53.236 67.013,53.236 L67.013,53.236 Z" id="Shape" fill="#000000"></path>
                    <path d="M4.353,146.332 C4.353,146.332 16.534,198.579 70.333,199.015 C124.132,199.45 133.859,145.187 133.859,145.187" id="Shape"></path>
                </g>
            </g>
            <g id="orkan" transform="translate(32.000000, 53.000000)">
                <g id="Group">
                    <path d="M136.992,118.15 C136.992,118.15 127.293,173.123 73.466,171.978 C19.639,170.832 7.486,119.296 7.486,119.296 C7.486,119.296 28.84,154.33 72.32,153.654 C115.799,152.977 136.992,118.15 136.992,118.15 L136.992,118.15 Z" id="Shape" fill="#000000"></path>
                    <path d="M1.364,86.47 C1.364,86.47 17.922,40.16 72.034,41.418 C126.146,42.676 140.907,79.211 140.907,79.211 C140.907,79.211 142.109,64.323 123.785,33.401 C105.461,2.479 97.486,0.999 94.044,1.334 C90.602,1.669 92.916,25.384 92.916,25.384 C92.916,25.384 74.601,8.214 63.148,1.334 C51.696,-5.547 64.794,32.586 57.426,26.53 C50.06,20.473 34.524,8.214 29.943,1.334 C27.652,-2.106 8.893,29.968 2.021,64.326 C-0.963,79.25 1.364,86.47 1.364,86.47 L1.364,86.47 Z" id="Shape" fill="#000000"></path>
                    <path d="M23.668,134.39 C23.668,134.39 50.177,116.072 71.093,115.933 C92.008,115.794 119.073,134.39 119.073,134.39 C119.073,134.39 104.692,121.587 72.698,121.222 C40.706,120.857 23.668,134.39 23.668,134.39 L23.668,134.39 Z" id="Shape" fill="#000000"></path>
                    <path d="M46.507,129.322 C46.507,129.322 56.088,141.918 72.475,141.363 C88.863,140.81 96.753,130.291 96.753,130.291" id="Shape"></path>
                    <circle id="Oval" fill="#000000" cx="47.847" cy="98.648" r="4.776"></circle>
                    <circle id="Oval" fill="#000000" cx="98.238" cy="98.648" r="4.775"></circle>
                </g>
            </g>
        </g>
    </g>
</svg>